<svg id="9610a9de-b9bb-4930-90d1-5361df25e190" data-name="Layer 1" xmlns="http://www.w3.org/2000/svg" viewBox="0 0 720 720"><title>icons</title><ellipse cx="279.93" cy="152.3" rx="54.28" ry="85.87"/><path d="M610.19,506.27C639.7,373.73,530.7,173,367,173.93,210.44,174.8,99.1,359.71,124.64,493.31c9.53,49.85,40.72,106.23,93,142.54C275,675.72,335,675.58,373.13,675.49c38.65-.09,94.79-.22,148.64-37.35C573.37,602.57,600.86,548.21,610.19,506.27Z"/><path d="M289.06,378.25c0,30.3-12.93,54.88-28.85,54.88s-28.9-24.58-28.9-54.88a97.54,97.54,0,0,1,1.95-19.82l42.81-26C283.87,342.21,289.06,359,289.06,378.25Z"/><path d="M488.28,378.25c0,30.3-12.93,54.88-28.91,54.88s-28.84-24.58-28.84-54.88c0-19.21,5.18-36,13-45.86l42.81,26A97.54,97.54,0,0,1,488.28,378.25Z"/><path d="M436.18,154.3a173.5,173.5,0,0,1-2.87,27.78,35.62,35.62,0,0,0-6-.59c-27-.61-50.74,25.25-61.9,62.89-9-39.61-32.09-67.91-59.72-68.53l-.66,0a165.79,165.79,0,0,1-1.21-24.52c1.35-59.79,32-107.63,68.6-106.8S437.53,94.51,436.18,154.3Z"/><polyline points="289.06 324.46 276.07 332.39 233.26 358.43 222.59 364.89"/><polyline points="430.53 324.46 443.52 332.39 486.33 358.43 497 364.89"/><path d="M308.63,508l50.66,8.28L411,508q5.2.84,5.29,2.06c0,.34-.24.69-.79,1.07l-51.12,32.38c-2.06,1.31-6.94,1.31-9,0l-51.22-32.42c-.55-.37-.82-.73-.79-1.06C303.39,509.26,305.15,508.57,308.63,508Z"/><path d="M411,516.33l-102.34-.09a5.28,5.28,0,0,1-4.5-8.05l51.12-83.26a5.28,5.28,0,0,1,9,0l51.23,83.34A5.29,5.29,0,0,1,411,516.33Z"/></svg>