<svg id="512cc6b8-6292-4a6d-9e3b-00258206484c" data-name="Layer 1" xmlns="http://www.w3.org/2000/svg" xmlns:xlink="http://www.w3.org/1999/xlink" viewBox="0 0 720 720"><defs><radialGradient id="d59bd090-2532-44bb-aa98-7a655f072a13" cx="250.52" cy="253.61" r="34.98" gradientUnits="userSpaceOnUse"><stop offset="0.82" stop-color="#ef4136"/><stop offset="1" stop-color="#fff"/></radialGradient></defs><title>icons</title><path d="M255.29,216.2,166.76,152l23.39,164.1c9.49,5.47,28.66,14.41,45.15,7.57C260.36,313.31,274.92,268.19,255.29,216.2Z" fill="#ef4136"/><path d="M281.74,174.06l-76.93-77.7-3.57,165.72c8.48,6.94,25.94,18.88,43.32,14.81C271,270.7,292.68,228.55,281.74,174.06Z" fill="#ef4136"/><path d="M323.63,130,265.21,37.55,226.09,198.63c6.79,8.59,21.27,24,39.12,23.77C292.34,222,322.59,185.54,323.63,130Z" fill="#ef4136"/><path d="M620.69,511C652.45,368.31,535.13,152.27,359,153.25c-168.55.94-288.4,200-260.91,343.78,10.26,53.64,43.83,114.33,100.1,153.42,61.76,42.91,126.34,42.76,167.37,42.67,41.6-.1,102-.24,160-40.21C581.05,614.63,610.64,556.12,620.69,511Z" fill="#fff"/><path d="M300.45,519.66l53.71,8.78,54.78-8.74q5.52.9,5.61,2.19c0,.35-.26.73-.84,1.13l-54.19,34.32c-2.18,1.39-7.36,1.39-9.55,0L295.68,523c-.59-.4-.87-.77-.84-1.13Q294.93,520.56,300.45,519.66Z" fill="#d99737"/><path d="M408.93,528.48l-108.49-.09a5.6,5.6,0,0,1-4.77-8.53l54.19-88.26a5.6,5.6,0,0,1,9.55,0L413.71,520A5.6,5.6,0,0,1,408.93,528.48Z" fill="#fbb040"/><path d="M429,164.3a39,39,0,0,0-6.42-.64c-29-.65-54.62,27.19-66.63,67.7-9.71-42.63-34.54-73.09-64.28-73.76l-.71,0L363.52,16.23Z" fill="#ef4136"/><path d="M486.09,370.78c0,32.62-13.91,59.07-31,59.07s-31.12-26.45-31.12-59.07a105.64,105.64,0,0,1,2.1-21.34l46.08-28C480.51,332,486.09,350.1,486.09,370.78Z"/><path d="M281.6,370.78c0,32.62-13.92,59.07-31.11,59.07s-31.05-26.45-31.05-59.07c0-20.68,5.58-38.8,14-49.36l46.08,28A104.93,104.93,0,0,1,281.6,370.78Z"/><path d="M228.36,280.89a23.36,23.36,0,0,0-12.78-41.79l6.47-7.74a23.35,23.35,0,0,0,41.79-12.77l8.84,5.68a23.36,23.36,0,0,0,12.77,41.79q-2.18,4.89-4.36,9.8a23.35,23.35,0,0,0-41.79,12.77Z" fill="url(#d59bd090-2532-44bb-aa98-7a655f072a13)"/></svg>