<svg id="52b8c032-63a8-4991-8693-fbc7e9ae8a2d" data-name="Layer 1" xmlns="http://www.w3.org/2000/svg" viewBox="0 0 720 720"><title>icons</title><path d="M232,320.37c14.14-29.79,7.61-61.48-14.88-72.16s-51.18,4.28-65.33,34.06-7.6,61.47,14.88,72.15S217.9,350.14,232,320.37Z"/><path d="M302.82,314c30.49,14.49,71.1-7,90.53-47.94s10.45-86-20-100.47-71.1,7-90.53,48S272.33,299.53,302.82,314Z"/><path d="M439.89,376.89C469.62,391,509.24,370,528.2,330.12s10.19-83.88-19.54-98-69.37,6.85-88.33,46.77S410.14,362.76,439.89,376.89Z"/><path d="M552.35,407.42c-22.5-10.69-51.18,4.28-65.33,34.06S479.41,503,501.9,513.63s51.19-4.28,65.33-34.05S574.84,418.1,552.35,407.42Z"/><path d="M436.44,494.72a32.58,32.58,0,0,1-.79-5.62c.21-32.51-19-80.05-73.79-107l-2.11-1c-54.35-25.82-102.28-12.17-129,9.21a22.93,22.93,0,0,1-4.24,2.26,52.78,52.78,0,0,0-5.93,3.06c-19.87,12.35-35.21,29.61-43.17,48.58-8.46,20.14-7.73,39.89,2,55.59A36.78,36.78,0,0,0,195,513.86c13.25,6.29,28.92,4.59,47.07,2.63,11.56-1.26,23.48-2.56,35.75-1.94,1.33.16,6.31,1.82,14,5.48,9.16,4.35,15.35,8.28,16.52,9.44,7.91,9.17,13.95,19.14,19.79,28.77,8.95,14.77,17.4,28.72,30.75,35.06a36.67,36.67,0,0,0,18.66,3.36c36.7-2.69,63.6-45.13,60-94.59A62.36,62.36,0,0,0,436.44,494.72Z"/></svg>