<svg id="c4156db6-57b9-4c7c-82df-5f5228e86fea" data-name="Layer 1" xmlns="http://www.w3.org/2000/svg" viewBox="0 0 720 720"><title>icons</title><path d="M272.09,231.87l-81.92-59.38,21.65,151.84c8.78,5.06,26.52,13.34,41.77,7C276.78,321.72,290.26,280,272.09,231.87Z"/><path d="M296.57,192.88q-35.6-36-71.18-71.9l-3.31,153.34c7.85,6.42,24,17.47,40.08,13.7C286.61,282.3,306.69,243.29,296.57,192.88Z"/><path d="M335.33,152.08,281.27,66.56l-36.2,149c6.28,8,19.69,22.23,36.2,22C306.38,237.27,334.37,203.49,335.33,152.08Z"/><path d="M610.2,504.62c29.39-132-79.17-331.9-242.18-331-156,.87-266.86,185-241.42,318.1,9.49,49.64,40.56,105.79,92.62,142,57.15,39.71,116.91,39.57,154.87,39.48,38.49-.09,94.41-.22,148-37.2C573.52,600.53,600.9,546.39,610.2,504.62Z"/><path d="M313.88,512.66l49.7,8.12,50.69-8.09q5.1.84,5.18,2c0,.33-.23.68-.77,1l-50.14,31.77c-2,1.28-6.81,1.28-8.84,0l-50.24-31.8c-.54-.37-.8-.71-.77-1C308.74,513.89,310.48,513.22,313.88,512.66Z"/><path d="M414.26,520.82l-100.39-.08a5.18,5.18,0,0,1-4.41-7.9l50.14-81.66a5.18,5.18,0,0,1,8.83,0l50.25,81.75A5.18,5.18,0,0,1,414.26,520.82Z"/><path d="M432.84,183.85a36.46,36.46,0,0,0-5.94-.6c-26.86-.6-50.53,25.16-61.65,62.64-9-39.44-32-67.63-59.48-68.25h-.65l67.11-130.8Z"/><path d="M485.65,374.9c0,30.18-12.87,54.66-28.72,54.66s-28.79-24.48-28.79-54.66a97.46,97.46,0,0,1,1.94-19.74l42.64-25.94C480.49,339,485.65,355.77,485.65,374.9Z"/><path d="M296.43,374.9c0,30.18-12.87,54.66-28.78,54.66s-28.73-24.48-28.73-54.66c0-19.13,5.16-35.9,12.94-45.68l42.63,25.94A96.75,96.75,0,0,1,296.43,374.9Z"/><path d="M247.17,291.73a21.61,21.61,0,0,0-11.82-38.67l6-7.16A21.61,21.61,0,0,0,280,234.08l8.18,5.25A21.61,21.61,0,0,0,300,278q-2,4.53-4,9.07a21.6,21.6,0,0,0-38.66,11.81Z"/></svg>