<svg id="c969bb23-e146-4852-919b-a2c3eb312637" data-name="Layer 1" xmlns="http://www.w3.org/2000/svg" viewBox="0 0 720 720"><title>icons</title><path d="M406.74,483.88c-27.72,23.6-61.3,24.9-72.81,24.75a120.07,120.07,0,0,1-37.51-6.74,107.82,107.82,0,0,1-19.05-8.68,100.83,100.83,0,0,1-20.49-15.33c-39.66-38.36-33.62-94.8-31.82-112C231.44,306.21,273.63,223,333.93,223S436.38,306.1,442.81,365.83C444.45,381.28,451.41,446,406.74,483.88Z" fill="#fff"/><path d="M322.5,406.18V424.8h18.62V406.18Zm40.23-74.84c0-19.7-9.64-30.94-28.45-30.94s-28.46,11.24-28.46,30.94v12.12h18.25V330.11c0-8.79,3.51-12.12,9.67-12.12s9.68,3.33,9.68,12.12c0,11.74-2.45,19.85-11.09,32.13-7.54,10.74-10,17.93-10,27.76a23.42,23.42,0,0,0,1,7.57h17.21a32,32,0,0,1-.69-6.84c0-7.92,2.29-13.88,9.83-24.09C359.21,354,362.73,344.49,362.73,331.34Z"/><path d="M398.78,266.7a29,29,0,0,0-10,25.46,28.91,28.91,0,0,0-24.32-10.08,28.87,28.87,0,0,0,7.78-26.68,28.84,28.84,0,0,0,26.51,11.3Z" fill="#fbb040"/><path d="M293.14,332.45a28.89,28.89,0,0,0-10,25.46,28.91,28.91,0,0,0-24.32-10.08,28.83,28.83,0,0,0,7.77-26.68,28.87,28.87,0,0,0,26.52,11.3Z" fill="#fbb040"/><path d="M392.57,442.88a28.86,28.86,0,0,0-10,25.46,28.91,28.91,0,0,0-24.32-10.09,28.87,28.87,0,0,0,7.77-26.67,28.87,28.87,0,0,0,26.52,11.3Z" fill="#fbb040"/><path d="M305.82,486.37a28.47,28.47,0,0,0-8.18,11.47,22.37,22.37,0,0,0-1.22,4.05,107.82,107.82,0,0,1-19.05-8.68c.23-.45.42-.91.61-1.37a28.4,28.4,0,0,0,1.3-16.75,28.83,28.83,0,0,0,26.54,11.28Z" fill="#fbb040"/></svg>