<svg id="b241cfaa-7bb2-4d59-9ee9-c5432498a7b0" data-name="Layer 1" xmlns="http://www.w3.org/2000/svg" xmlns:xlink="http://www.w3.org/1999/xlink" viewBox="0 0 720 720"><defs><radialGradient id="a170afaa-e661-4c0c-88a1-f2411dd59c02" cx="270.18" cy="271.76" r="28.7" gradientUnits="userSpaceOnUse"><stop offset="0.82" stop-color="#ef4136"/><stop offset="1" stop-color="#fff"/></radialGradient></defs><title>icons</title><path d="M274.09,241.07l-72.63-52.65,19.19,134.63c7.79,4.49,23.51,11.83,37,6.22C278.25,320.73,290.2,283.72,274.09,241.07Z" fill="#ef4136"/><path d="M295.8,206.5l-63.12-63.75-2.93,136c7,5.69,21.28,15.49,35.54,12.15C287,285.78,304.77,251.2,295.8,206.5Z" fill="#ef4136"/><path d="M330.16,170.32q-24-37.9-47.93-75.83l-32.1,132.16c5.57,7,17.46,19.7,32.1,19.5C304.49,245.85,329.31,215.91,330.16,170.32Z" fill="#ef4136"/><path d="M573.88,482.91c26.06-117-70.2-294.29-214.73-293.49-138.29.77-236.62,164.06-214.06,282.05,8.41,44,36,93.8,82.12,125.87,50.67,35.21,103.66,35.08,137.32,35,34.13-.08,83.71-.2,131.26-33C541.36,568,565.63,520,573.88,482.91Z" fill="#fff"/><path d="M311.15,490l44.06,7.2,44.94-7.18q4.53.75,4.6,1.8c0,.29-.21.6-.68.93L359.61,521c-1.8,1.14-6,1.14-7.83,0l-44.55-28.19c-.48-.33-.71-.63-.69-.92Q306.61,490.78,311.15,490Z" fill="#d99737"/><path d="M400.14,497.27l-89-.07a4.6,4.6,0,0,1-3.92-7l44.46-72.41a4.6,4.6,0,0,1,7.84,0l44.54,72.48A4.59,4.59,0,0,1,400.14,497.27Z" fill="#fbb040"/><path d="M416.62,198.49a31.58,31.58,0,0,0-5.26-.53c-23.82-.54-44.81,22.3-54.67,55.54-8-35-28.33-60-52.73-60.52h-.58l59.5-116Z" fill="#ef4136"/><path d="M463.45,367.89c0,26.76-11.42,48.46-25.47,48.46s-25.53-21.7-25.53-48.46a86.21,86.21,0,0,1,1.73-17.51l37.8-23C458.87,336.06,463.45,350.92,463.45,367.89Z"/><path d="M295.68,367.89c0,26.76-11.42,48.46-25.53,48.46s-25.47-21.7-25.47-48.46c0-17,4.58-31.83,11.47-40.5l37.8,23A86.21,86.21,0,0,1,295.68,367.89Z"/><path d="M252,294.14a19.17,19.17,0,0,0-10.47-34.29l5.3-6.35A19.16,19.16,0,0,0,281.1,243l7.26,4.65A19.16,19.16,0,0,0,298.84,282l-3.58,8A19.16,19.16,0,0,0,261,300.49Z" fill="url(#a170afaa-e661-4c0c-88a1-f2411dd59c02)"/></svg>