<svg id="0bafbc41-e087-4890-885c-4944d6cd86e9" data-name="Layer 1" xmlns="http://www.w3.org/2000/svg" viewBox="0 0 720 720"><title>icons</title><path d="M460.09,534c-38.27,32.56-84.62,34.36-100.5,34.15a166.36,166.36,0,0,1-51.79-9.29,149.21,149.21,0,0,1-26.28-12,139.87,139.87,0,0,1-28.3-21.16c-54.73-53-46.39-130.86-43.91-154.66,8.81-82.3,67-197.1,150.28-197.1S501,288.58,509.87,371C512.14,392.35,521.74,481.61,460.09,534Z"/><path d="M343.8,426.72v25.7h25.71v-25.7Zm55.53-103.31c0-27.18-13.3-42.7-39.27-42.7s-39.27,15.52-39.27,42.7v16.74H346V321.72c0-12.14,4.85-16.73,13.35-16.73s13.36,4.59,13.36,16.73c0,16.21-3.38,27.4-15.31,44.34-10.4,14.84-13.78,24.76-13.78,38.33A32.4,32.4,0,0,0,345,414.84h23.75a45,45,0,0,1-.95-9.45c0-10.93,3.17-19.16,13.57-33.26C394.48,354.66,399.33,341.57,399.33,323.41Z"/><path d="M449.1,234.2a39.88,39.88,0,0,0-13.76,35.14,39.89,39.89,0,0,0-33.57-13.92A39.82,39.82,0,0,0,412.5,218.6a39.84,39.84,0,0,0,36.6,15.6Z"/><path d="M303.28,325a39.91,39.91,0,0,0-13.76,35.15A39.89,39.89,0,0,0,256,346.18a39.82,39.82,0,0,0,10.73-36.82A39.8,39.8,0,0,0,303.28,325Z"/><path d="M440.52,477.37a39.84,39.84,0,0,0-13.75,35.15,39.92,39.92,0,0,0-33.58-13.92,39.83,39.83,0,0,0,10.73-36.83,39.84,39.84,0,0,0,36.6,15.6Z"/><path d="M320.79,537.41a39.19,39.19,0,0,0-11.3,15.83,31,31,0,0,0-1.69,5.6,149.21,149.21,0,0,1-26.28-12c.31-.63.58-1.26.84-1.9a39.25,39.25,0,0,0,1.8-23.12,39.74,39.74,0,0,0,36.63,15.58Z"/></svg>