<svg id="fe7a001e-e900-45d7-ae7b-747a4a41c7b7" data-name="Layer 1" xmlns="http://www.w3.org/2000/svg" viewBox="0 0 595.01 301.32"><title>game_state-</title><path d="M567.59,117v66.64a66.26,66.26,0,0,1-.54,8.38,67,67,0,0,1-12.29,31.12c-.35.48-.68.95-1,1.41A68.35,68.35,0,0,1,538,239.5a67.12,67.12,0,0,1-38,11.77H94.18a67.82,67.82,0,0,1-67.61-67.62V117A67.82,67.82,0,0,1,94.18,49.39H500A67.83,67.83,0,0,1,567.59,117Z" opacity="0.31"/><ellipse cx="423.56" cy="95.91" rx="12.21" ry="19.31" fill="#ef4136"/><path d="M497.84,175.53c6.64-29.82-17.88-75-54.69-74.76-35.22.2-60.27,41.79-54.52,71.84a52,52,0,0,0,20.91,32.06c12.91,9,26.41,8.94,35,8.92s21.32-.05,33.43-8.4A50.18,50.18,0,0,0,497.84,175.53Z" fill="#fff"/><path d="M425.61,146.73c0,6.82-2.91,12.35-6.49,12.35s-6.5-5.53-6.5-12.35a21.83,21.83,0,0,1,.44-4.46l9.63-5.85C424.44,138.62,425.61,142.41,425.61,146.73Z"/><path d="M470.42,146.73c0,6.82-2.91,12.35-6.5,12.35s-6.49-5.53-6.49-12.35c0-4.32,1.17-8.11,2.92-10.31l9.63,5.85A21.83,21.83,0,0,1,470.42,146.73Z"/><path d="M458.7,96.36a39.25,39.25,0,0,1-.64,6.25,7.52,7.52,0,0,0-1.34-.14c-6.07-.13-11.42,5.68-13.93,14.15-2-8.91-7.21-15.27-13.43-15.41h-.15a38.31,38.31,0,0,1-.27-5.51c.3-13.45,7.21-24.21,15.43-24S459,82.91,458.7,96.36Z" fill="#ef4136"/><polyline points="425.61 134.63 422.69 136.42 413.06 142.27 410.66 143.73" fill="none" stroke="#000" stroke-linecap="round" stroke-miterlimit="10"/><polyline points="457.43 134.63 460.35 136.42 469.98 142.27 472.38 143.73" fill="none" stroke="#000" stroke-linecap="round" stroke-miterlimit="10"/><path d="M430,175.92l11.4,1.86L453,175.92c.78.13,1.18.29,1.19.47s-.05.15-.18.24l-11.49,7.28a2.4,2.4,0,0,1-2,0L429,176.62q-.19-.12-.18-.24C428.83,176.2,429.23,176,430,175.92Z" fill="#d99737"/><path d="M453,177.79l-23,0a1.19,1.19,0,0,1-1-1.81l11.5-18.73a1.19,1.19,0,0,1,2,0L454,176A1.19,1.19,0,0,1,453,177.79Z" fill="#fbb040"/><path d="M196.2,166.39C192.23,188.53,168.59,214,137,214c-32.25,0-54.79-26.68-59.17-47.63-.26-1.22-.42-2.28-.53-3.11a121.41,121.41,0,0,1,11.6-70.77,78.85,78.85,0,0,1,31.18,28.24,72.8,72.8,0,0,1,16.92-2,71.54,71.54,0,0,1,15.67,1.7,78.79,78.79,0,0,1,31-28,137.15,137.15,0,0,1,13.16,65.71A41.56,41.56,0,0,1,196.2,166.39Z"/><path d="M143.91,181.76a21.24,21.24,0,0,0-4,3.73,21.53,21.53,0,0,0-2.78,4.31.68.68,0,0,1-.52.26.71.71,0,0,1-.53-.26,39.79,39.79,0,0,0-3.3-4.44,39.16,39.16,0,0,0-3.49-3.6,1.16,1.16,0,0,1-.2-.82.88.88,0,0,1,.49-.64,18.54,18.54,0,0,1,7.13-1.39,18.78,18.78,0,0,1,6.92,1.39A1,1,0,0,1,143.91,181.76Z" fill="#808285"/><path d="M98.22,147.16a35.61,35.61,0,0,1,27.09,28.74,19.76,19.76,0,0,1-27.09-28.74Z" fill="#efe584"/><path d="M175,147.16a35.61,35.61,0,0,0-27.09,28.74A19.76,19.76,0,0,0,175,147.16Z" fill="#efe584"/><ellipse cx="111.49" cy="167.29" rx="5.6" ry="8.23"/><ellipse cx="160.22" cy="167.29" rx="5.6" ry="8.23"/><polygon points="367.67 159.66 352.95 168.18 302.03 197.66 301.62 197.66 301.62 178.66 226.48 178.66 226.48 139.8 301.62 139.8 301.62 121.66 302.03 121.66 367.67 159.66" fill="#f9f1f1"/><polygon points="367.67 159.66 352.95 168.18 301.62 138.55 301.62 121.66 302.03 121.66 367.67 159.66" opacity="0.04"/></svg>