<svg id="35685a09-cd19-4ee0-af4c-4869834c37d3" data-name="Layer 1" xmlns="http://www.w3.org/2000/svg" viewBox="0 0 595.01 301.32"><title>game_state-</title><path d="M568,117.39V184a67,67,0,0,1-9.42,34.31l-.12.2a68.52,68.52,0,0,1-10.93,13.84,67.42,67.42,0,0,1-47.15,19.26H94.6A67.82,67.82,0,0,1,27,184V117.39A67.81,67.81,0,0,1,94.6,49.78H500.38A67.81,67.81,0,0,1,568,117.39Z" fill="#be1e2d"/><path d="M568,117.39V184a67,67,0,0,1-9.42,34.31l-.12.2a68.52,68.52,0,0,1-10.93,13.84,67.42,67.42,0,0,1-47.15,19.26H416.22a154.72,154.72,0,0,1-21.37-53c-9.12-47.7,7.31-105,40.35-148.85h65.18A67.81,67.81,0,0,1,568,117.39Z" fill="#9e1e2d"/><path d="M558.58,218.35l-.12.2a68.52,68.52,0,0,1-10.93,13.84l-21.91-13.87-5.42-3.43a1.33,1.33,0,0,1-.5-.52,0,0,0,0,1,0,0,.26.26,0,0,1,0-.17.43.43,0,0,1,.11-.25q.5-.66,3.45-1.14l34.07,5.56Z" fill="#d99737"/><path d="M560.63,157.13l7.37,12V184a67,67,0,0,1-9.42,34.31l-.12.2H557.3l-31.68,0h-2.4a3.54,3.54,0,0,1-3.52-4,0,0,0,0,1,0,0,2.07,2.07,0,0,1,.08-.42,3.44,3.44,0,0,1,.42-1l34.37-56A3.56,3.56,0,0,1,560.63,157.13Z" fill="#fbb040"/><path d="M511.27,118.55c0,20.69-8.83,37.47-19.73,37.47s-19.7-16.78-19.7-37.47c0-13.12,3.54-24.61,8.87-31.31L509.94,105A66.83,66.83,0,0,1,511.27,118.55Z"/><path d="M89.07,116.18l16.7-2.26-8,37.69a16.37,16.37,0,0,0,10-4.74,29.8,29.8,0,0,0,7.17-10.61,32.5,32.5,0,0,0,2.59-12.41q0-6.76-3.49-11.06c-2.34-2.85-5.83-4.28-10.5-4.28q-13.76,0-21.49,7.22t-7.73,20.19a14.89,14.89,0,0,0,.79,5.81,9.49,9.49,0,0,1,.79,1.87q-6.09,0-9.08-2.54t-3-8.41q0-7.22,5.92-14A43.93,43.93,0,0,1,84.9,107.55a44.12,44.12,0,0,1,18.5-4.23q8.91,0,14.89,3a20.74,20.74,0,0,1,8.86,8.07A21.94,21.94,0,0,1,130,125.54a28.51,28.51,0,0,1-4,14.33,31.5,31.5,0,0,1-11.45,11.45,32.65,32.65,0,0,1-17.15,4.46h-.56L90,187.93H73.73Z"/><path d="M130.2,185.23q-3.33-3.39-3.33-10.16a39.21,39.21,0,0,1,.9-7.33l12.07-56.52,16.7-2.26-13,60.92a14.06,14.06,0,0,0-.45,3.61,4.12,4.12,0,0,0,1.08,3.22,5.25,5.25,0,0,0,3.55,1,8.57,8.57,0,0,0,6.09-2.77,15.81,15.81,0,0,0,4.06-7.16h4.74q-4.17,12.18-10.72,16.53a23.38,23.38,0,0,1-13,4.34A11.71,11.71,0,0,1,130.2,185.23Z"/><path d="M160.71,184.21q-4.28-4.4-4.28-13.76a51.74,51.74,0,0,1,3.32-17.55,40.42,40.42,0,0,1,9.93-15.57A21.91,21.91,0,0,1,185.42,131c3.08,0,5.38.53,6.88,1.58a4.85,4.85,0,0,1,2.26,4.17v.79l1.24-6h16.25l-8.13,38.36a14.06,14.06,0,0,0-.45,3.61c0,3.24,1.54,4.85,4.63,4.85a6.8,6.8,0,0,0,5.47-2.93,22.19,22.19,0,0,0,3.67-7.67H222q-4.18,12.18-10.33,16.53a21.33,21.33,0,0,1-12.35,4.34,10.8,10.8,0,0,1-7.62-2.65c-1.92-1.77-3.06-4.34-3.44-7.73a31.21,31.21,0,0,1-7.28,7.5,15.87,15.87,0,0,1-9.53,2.88A14.36,14.36,0,0,1,160.71,184.21ZM184.35,175a14,14,0,0,0,3.78-7.28l5.41-25.5a4.6,4.6,0,0,0-1.12-2.88,4.22,4.22,0,0,0-3.5-1.41q-4.51,0-8.12,5.25a41.63,41.63,0,0,0-5.65,12.64,50.09,50.09,0,0,0-2,13q0,5.64,1.64,7.22a5.56,5.56,0,0,0,4,1.58A8.18,8.18,0,0,0,184.35,175Z"/><path d="M225.81,213.32a9.69,9.69,0,0,1-3.61-8.12,12.29,12.29,0,0,1,5.19-10.33,44.89,44.89,0,0,1,13.2-6.48l1.35-6.1a17.24,17.24,0,0,1-13.54,6.32,11.73,11.73,0,0,1-8.74-3.38q-3.33-3.39-3.33-10.16a38.53,38.53,0,0,1,.91-7.33l7.67-36.22h16.24L233,169.88a11.46,11.46,0,0,0-.34,2.82q0,5,3.39,5a6.81,6.81,0,0,0,5.19-2.54,18.79,18.79,0,0,0,3.61-6.71l7.89-36.9H269l-11.17,52.35a20,20,0,0,0,8.69-5.41q3.27-3.61,5.53-10.72h4.74q-3.06,10-8.24,14.72a27.69,27.69,0,0,1-11.73,6.38l-1.7,8.12q-2.25,10.93-7.78,15.06a20.41,20.41,0,0,1-12.52,4.12A14.24,14.24,0,0,1,225.81,213.32ZM236,204.74a20.29,20.29,0,0,0,2.82-7.44l.68-3.27q-11.06,4-11.06,9.59a3.75,3.75,0,0,0,1,2.59,3.62,3.62,0,0,0,2.82,1.13Q234.16,207.34,236,204.74Z"/><path d="M275.22,184.27q-4.62-4.35-4.62-13.6a55.63,55.63,0,0,1,3-17.15,39.84,39.84,0,0,1,9.92-16.19q6.89-6.83,17.49-6.82,12.4,0,12.41,10.83A20.21,20.21,0,0,1,309.86,153a26.65,26.65,0,0,1-9.59,8.52,31,31,0,0,1-12.75,3.66c-.15,2.26-.22,3.77-.22,4.52,0,3.68.63,6.18,1.91,7.5s3.35,2,6.21,2a18.77,18.77,0,0,0,10.44-2.82,50.91,50.91,0,0,0,9.53-8.57h3.83q-12.51,20.87-31,20.87Q279.85,188.61,275.22,184.27Zm21.16-27.47a20.63,20.63,0,0,0,6.09-6.89,17.89,17.89,0,0,0,2.31-8.8q0-4.62-2.82-4.62c-2.7,0-5.36,2.37-7.95,7.11a53.91,53.91,0,0,0-5.59,16.13A14.9,14.9,0,0,0,296.38,156.8Z"/><path d="M323.06,131.52h16.25l-1.47,7a44.82,44.82,0,0,1,6.94-5.19,13.14,13.14,0,0,1,6.71-1.81,7,7,0,0,1,5.7,2.49,9,9,0,0,1,2.09,6,8.53,8.53,0,0,1-2.15,5.76,7.49,7.49,0,0,1-6,2.48c-1.65,0-2.76-.39-3.33-1.18a9.1,9.1,0,0,1-1.29-3.44,10.34,10.34,0,0,0-.68-2.15,1.27,1.27,0,0,0-1.24-.68,7.91,7.91,0,0,0-4,1,27.61,27.61,0,0,0-4.23,3.33l-9,42.87H311.1Z"/><path d="M399.55,117.53H388.83l1.36-5.19a52.09,52.09,0,0,0,12.86-1.69q6.66-1.7,15.79-7.11l-17.93,84.39H384.66Z"/></svg>