<svg id="ea494a1c-0d58-4e39-917a-d89bad0e5e98" data-name="Layer 1" xmlns="http://www.w3.org/2000/svg" viewBox="0 0 595.01 301.32"><title>gameState</title><path d="M567.16,127.92v55.74a64.16,64.16,0,0,1-10.85,35.73.76.76,0,0,1-.13.2,65.05,65.05,0,0,1-12.3,13.67,64.34,64.34,0,0,1-41.41,15.09H91.8a64.88,64.88,0,0,1-64.69-64.69V127.92A64.89,64.89,0,0,1,91.8,63.22H502.47A64.89,64.89,0,0,1,567.16,127.92Z"/><path d="M567.16,127.92v55.74a64.16,64.16,0,0,1-10.85,35.73.76.76,0,0,1-.13.2,65.05,65.05,0,0,1-12.3,13.67,64.34,64.34,0,0,1-41.41,15.09H407.78a155.63,155.63,0,0,1-16.31-44.78c-8.52-44.59,4.82-97.37,33-140.35h78A64.89,64.89,0,0,1,567.16,127.92Z" fill="#fff"/><path d="M506.1,123.35c0,21.13-9,38.26-20.11,38.26s-20.15-17.13-20.15-38.26a68.18,68.18,0,0,1,1.36-13.82l29.85-18.15C502.49,98.22,506.1,110,506.1,123.35Z"/><polyline points="506.1 85.85 497.05 91.38 467.2 109.53 459.76 114.04" fill="none" stroke="#000" stroke-linecap="round" stroke-miterlimit="10"/><path d="M556.31,219.39a.76.76,0,0,1-.13.2,65.05,65.05,0,0,1-12.3,13.67l-21.65-13.7L516.6,216a1.43,1.43,0,0,1-.52-.55,0,0,0,0,1,0,0,.51.51,0,0,1,0-.17.49.49,0,0,1,.11-.26c.35-.46,1.55-.85,3.59-1.19l35.32,5.78Z" fill="#d99737"/><path d="M567.16,170v13.71a64.16,64.16,0,0,1-10.85,35.73.76.76,0,0,1-.13.2h-1.11l-32.84,0h-2.49a3.7,3.7,0,0,1-3.66-4.11,0,0,0,0,1,0,0,2.17,2.17,0,0,1,.08-.43,3.46,3.46,0,0,1,.44-1.06l35.64-58.05a3.69,3.69,0,0,1,6.28,0Z" fill="#fbb040"/><path d="M89.63,124.91l14.46-2-6.94,32.62a14.12,14.12,0,0,0,8.65-4.1,25.9,25.9,0,0,0,6.2-9.18,28.26,28.26,0,0,0,2.24-10.74,14.68,14.68,0,0,0-3-9.57q-3-3.72-9.09-3.72-11.91,0-18.6,6.26T76.84,142a12.73,12.73,0,0,0,.68,5,8.67,8.67,0,0,1,.68,1.61q-5.26,0-7.86-2.2c-1.73-1.46-2.59-3.89-2.59-7.27q0-6.25,5.13-12.16A40.6,40.6,0,0,1,102,113.77a28.21,28.21,0,0,1,12.89,2.64,18,18,0,0,1,7.67,7,19,19,0,0,1,2.49,9.62,24.7,24.7,0,0,1-3.47,12.41,27.24,27.24,0,0,1-9.92,9.91,28.33,28.33,0,0,1-14.84,3.86h-.49l-6,27.83H76.35Z" fill="#fff"/><path d="M125.23,184.68q-2.88-2.93-2.88-8.79a34,34,0,0,1,.78-6.35l10.45-48.93,14.46-2L136.81,171.4a12.07,12.07,0,0,0-.39,3.12,3.59,3.59,0,0,0,.92,2.79,4.61,4.61,0,0,0,3.08.83,7.4,7.4,0,0,0,5.27-2.4,13.66,13.66,0,0,0,3.52-6.2h4.1q-3.62,10.54-9.28,14.31a20.19,20.19,0,0,1-11.23,3.76A10.16,10.16,0,0,1,125.23,184.68Z" fill="#fff"/><path d="M151.65,183.8q-3.71-3.81-3.71-11.91a44.65,44.65,0,0,1,2.88-15.19,35,35,0,0,1,8.6-13.48A18.93,18.93,0,0,1,173,137.7q4,0,6,1.37a4.22,4.22,0,0,1,1.95,3.61v.69l1.08-5.18h14.06l-7,33.21a12.07,12.07,0,0,0-.39,3.12q0,4.2,4,4.2a5.87,5.87,0,0,0,4.74-2.54,19.29,19.29,0,0,0,3.18-6.64h4.1q-3.62,10.54-8.94,14.31a18.4,18.4,0,0,1-10.69,3.76,9.35,9.35,0,0,1-6.6-2.29,10.3,10.3,0,0,1-3-6.69,27.29,27.29,0,0,1-6.3,6.49,13.76,13.76,0,0,1-8.25,2.49A12.44,12.44,0,0,1,151.65,183.8Zm20.46-8a12.05,12.05,0,0,0,3.28-6.3l4.68-22.07a3.94,3.94,0,0,0-1-2.49,3.63,3.63,0,0,0-3-1.22q-3.91,0-7,4.54a36,36,0,0,0-4.89,10.94,43.25,43.25,0,0,0-1.75,11.28c0,3.25.47,5.34,1.41,6.25a4.82,4.82,0,0,0,3.47,1.37A7,7,0,0,0,172.11,175.84Z" fill="#fff"/><path d="M208,209a8.38,8.38,0,0,1-3.13-7,10.65,10.65,0,0,1,4.49-8.94,39.05,39.05,0,0,1,11.43-5.61l1.17-5.28a14.95,14.95,0,0,1-11.72,5.47,10.16,10.16,0,0,1-7.57-2.93q-2.88-2.93-2.88-8.79a34,34,0,0,1,.78-6.35l6.65-31.35h14.06l-7,33.21a9.77,9.77,0,0,0-.29,2.44c0,2.87,1,4.3,2.93,4.3a5.9,5.9,0,0,0,4.49-2.2,16.16,16.16,0,0,0,3.12-5.81l6.84-31.94h14.07l-9.67,45.32a17.33,17.33,0,0,0,7.52-4.69,25.19,25.19,0,0,0,4.78-9.28h4.1q-2.62,8.7-7.13,12.75a24,24,0,0,1-10.15,5.52l-1.47,7q-2,9.47-6.74,13a17.71,17.71,0,0,1-10.84,3.56A12.29,12.29,0,0,1,208,209Zm8.79-7.42a17.93,17.93,0,0,0,2.44-6.45l.59-2.83q-9.59,3.51-9.58,8.3a3.29,3.29,0,0,0,.88,2.25,3.12,3.12,0,0,0,2.44,1C214.68,203.82,215.76,203.07,216.8,201.58Z" fill="#fff"/><path d="M250.79,183.85q-4-3.76-4-11.77a48.37,48.37,0,0,1,2.64-14.85,34.5,34.5,0,0,1,8.59-14,20.62,20.62,0,0,1,15.14-5.91q10.75,0,10.75,9.38a17.47,17.47,0,0,1-3.13,10.06,23,23,0,0,1-8.3,7.37,26.74,26.74,0,0,1-11,3.18c-.13,1.95-.19,3.25-.19,3.9q0,4.78,1.66,6.5t5.37,1.71a16.17,16.17,0,0,0,9-2.45,43.58,43.58,0,0,0,8.26-7.42h3.32Q278,187.62,262,187.61,254.79,187.61,250.79,183.85Zm18.31-23.78a17.91,17.91,0,0,0,5.27-6,15.45,15.45,0,0,0,2-7.62q0-4-2.45-4-3.51,0-6.88,6.15a46.85,46.85,0,0,0-4.84,14A12.9,12.9,0,0,0,269.1,160.07Z" fill="#fff"/><path d="M292.2,138.19h14.06L305,144.24a39.55,39.55,0,0,1,6-4.49,11.38,11.38,0,0,1,5.81-1.56,6.11,6.11,0,0,1,4.93,2.15,7.75,7.75,0,0,1,1.81,5.17,7.45,7.45,0,0,1-1.85,5,6.5,6.5,0,0,1-5.18,2.15,3.36,3.36,0,0,1-2.88-1,7.76,7.76,0,0,1-1.13-3,9,9,0,0,0-.58-1.86,1.1,1.1,0,0,0-1.08-.58,6.77,6.77,0,0,0-3.46.83,23.26,23.26,0,0,0-3.67,2.88L295.91,187H281.84Z" fill="#fff"/><path d="M358.42,126.08h-9.28l1.17-4.49a45.1,45.1,0,0,0,11.14-1.47A54.48,54.48,0,0,0,375.12,114L359.59,187H345.53Z" fill="#fff"/></svg>