<svg id="9b461058-4f1d-4abf-8388-42cca862d5c3" data-name="Layer 1" xmlns="http://www.w3.org/2000/svg" viewBox="0 0 595.01 301.32"><title>gameState</title><path d="M568,117.39V184a67,67,0,0,1-9.42,34.31l-.12.2a68.52,68.52,0,0,1-10.93,13.84,67.42,67.42,0,0,1-47.15,19.26H94.6A67.82,67.82,0,0,1,27,184V117.39A67.81,67.81,0,0,1,94.6,49.78H500.38A67.81,67.81,0,0,1,568,117.39Z"/><path d="M568,117.39V184a67,67,0,0,1-9.42,34.31l-.12.2a68.52,68.52,0,0,1-10.93,13.84,67.42,67.42,0,0,1-47.15,19.26H416.22a154.72,154.72,0,0,1-21.37-53c-9.12-47.7,7.31-105,40.35-148.85h65.18A67.81,67.81,0,0,1,568,117.39Z" fill="#fff"/><path d="M558.58,218.35l-.12.2a68.52,68.52,0,0,1-10.93,13.84l-21.91-13.87-5.42-3.43a1.33,1.33,0,0,1-.5-.52,0,0,0,0,1,0,0,.26.26,0,0,1,0-.17.43.43,0,0,1,.11-.25q.5-.66,3.45-1.14l34.07,5.56Z" fill="#d99737"/><path d="M560.63,157.13l7.37,12V184a67,67,0,0,1-9.42,34.31l-.12.2H557.3l-31.68,0h-2.4a3.54,3.54,0,0,1-3.52-4,0,0,0,0,1,0,0,2.07,2.07,0,0,1,.08-.42,3.44,3.44,0,0,1,.42-1l34.37-56A3.56,3.56,0,0,1,560.63,157.13Z" fill="#fbb040"/><path d="M511.27,118.55c0,20.69-8.83,37.47-19.73,37.47s-19.7-16.78-19.7-37.47c0-13.12,3.54-24.61,8.87-31.31L509.94,105A66.83,66.83,0,0,1,511.27,118.55Z"/><path d="M89.47,122.91l14.46-2L97,153.57a14.12,14.12,0,0,0,8.65-4.1,25.9,25.9,0,0,0,6.2-9.18,28.07,28.07,0,0,0,2.24-10.74,14.68,14.68,0,0,0-3-9.57q-3-3.72-9.09-3.72-11.91,0-18.6,6.26T76.68,140a12.73,12.73,0,0,0,.68,5,7.93,7.93,0,0,1,.68,1.61q-5.26,0-7.86-2.2c-1.72-1.46-2.59-3.89-2.59-7.27q0-6.25,5.13-12.16a40.6,40.6,0,0,1,29.16-13.24,28.21,28.21,0,0,1,12.89,2.64,17.92,17.92,0,0,1,7.67,7,19,19,0,0,1,2.49,9.62,24.7,24.7,0,0,1-3.47,12.41,27.29,27.29,0,0,1-9.91,9.91,28.39,28.39,0,0,1-14.85,3.86h-.49l-6,27.83H76.19Z" fill="#fff"/><path d="M125.07,182.68q-2.88-2.93-2.88-8.79a34,34,0,0,1,.78-6.35l10.45-48.93,14.46-2L136.65,169.4a12.07,12.07,0,0,0-.39,3.12,3.59,3.59,0,0,0,.92,2.79,4.61,4.61,0,0,0,3.08.83,7.4,7.4,0,0,0,5.27-2.4,13.66,13.66,0,0,0,3.52-6.2h4.1q-3.61,10.54-9.28,14.31a20.19,20.19,0,0,1-11.23,3.76A10.16,10.16,0,0,1,125.07,182.68Z" fill="#fff"/><path d="M151.49,181.8q-3.7-3.81-3.71-11.91a44.65,44.65,0,0,1,2.88-15.19,35,35,0,0,1,8.6-13.48,18.93,18.93,0,0,1,13.62-5.52q4,0,6,1.37a4.22,4.22,0,0,1,1.95,3.61v.69l1.08-5.18h14.06l-7,33.21a12.07,12.07,0,0,0-.39,3.12q0,4.2,4,4.2a5.87,5.87,0,0,0,4.74-2.54,19.11,19.11,0,0,0,3.18-6.64h4.1q-3.61,10.54-8.94,14.31a18.4,18.4,0,0,1-10.69,3.76,9.35,9.35,0,0,1-6.6-2.29,10.3,10.3,0,0,1-3-6.69,27.1,27.1,0,0,1-6.3,6.49,13.76,13.76,0,0,1-8.25,2.49A12.44,12.44,0,0,1,151.49,181.8Zm20.46-8a12.05,12.05,0,0,0,3.28-6.3l4.69-22.07a4,4,0,0,0-1-2.49,3.63,3.63,0,0,0-3-1.22c-2.6,0-4.95,1.51-7,4.54A36,36,0,0,0,164,157.24a43.25,43.25,0,0,0-1.75,11.28c0,3.25.47,5.34,1.41,6.25a4.82,4.82,0,0,0,3.47,1.37A7,7,0,0,0,172,173.84Z" fill="#fff"/><path d="M207.85,207a8.38,8.38,0,0,1-3.13-7,10.63,10.63,0,0,1,4.5-8.94,38.86,38.86,0,0,1,11.42-5.61l1.17-5.28a14.95,14.95,0,0,1-11.72,5.47,10.16,10.16,0,0,1-7.57-2.93q-2.88-2.93-2.88-8.79a34,34,0,0,1,.78-6.35l6.65-31.35h14.06l-7,33.21a9.77,9.77,0,0,0-.29,2.44c0,2.87,1,4.3,2.93,4.3a5.89,5.89,0,0,0,4.49-2.2,16.16,16.16,0,0,0,3.12-5.81l6.84-31.94h14.07l-9.67,45.32a17.33,17.33,0,0,0,7.52-4.69,25,25,0,0,0,4.78-9.28H252q-2.64,8.7-7.13,12.75a24.07,24.07,0,0,1-10.16,5.52l-1.47,7q-2,9.47-6.74,13a17.71,17.71,0,0,1-10.84,3.56A12.29,12.29,0,0,1,207.85,207Zm8.79-7.42a17.93,17.93,0,0,0,2.44-6.45l.59-2.83q-9.58,3.51-9.58,8.3a3.29,3.29,0,0,0,.88,2.25,3.13,3.13,0,0,0,2.45,1C214.52,201.82,215.6,201.07,216.64,199.58Z" fill="#fff"/><path d="M250.63,181.85q-4-3.76-4-11.77a48.37,48.37,0,0,1,2.64-14.85,34.5,34.5,0,0,1,8.59-14A20.62,20.62,0,0,1,273,135.31q10.75,0,10.75,9.38a17.47,17.47,0,0,1-3.13,10.06,23,23,0,0,1-8.3,7.37,26.74,26.74,0,0,1-11,3.18c-.13,1.95-.19,3.25-.19,3.9q0,4.78,1.66,6.5t5.37,1.71a16.23,16.23,0,0,0,9-2.45,43.87,43.87,0,0,0,8.25-7.42h3.32q-10.85,18.08-26.86,18.07Q254.63,185.61,250.63,181.85Zm18.31-23.78a17.91,17.91,0,0,0,5.27-6,15.45,15.45,0,0,0,2-7.62c0-2.67-.82-4-2.44-4q-3.52,0-6.89,6.15a46.56,46.56,0,0,0-4.83,14A12.9,12.9,0,0,0,268.94,158.07Z" fill="#fff"/><path d="M292,136.19H306.1l-1.27,6.05a39.55,39.55,0,0,1,6-4.49,11.38,11.38,0,0,1,5.81-1.56,6.11,6.11,0,0,1,4.93,2.15,7.75,7.75,0,0,1,1.81,5.17,7.45,7.45,0,0,1-1.85,5,6.49,6.49,0,0,1-5.18,2.14,3.36,3.36,0,0,1-2.88-1,7.76,7.76,0,0,1-1.13-3,9,9,0,0,0-.58-1.86,1.1,1.1,0,0,0-1.08-.58,6.77,6.77,0,0,0-3.46.83,23.26,23.26,0,0,0-3.67,2.88L295.75,185H281.69Z" fill="#fff"/><path d="M358.26,124.08H349l1.17-4.49a45.1,45.1,0,0,0,11.14-1.47A54.48,54.48,0,0,0,375,112L359.43,185H345.37Z" fill="#fff"/></svg>