<svg id="2f8b84fe-1c64-4d34-96b4-f5e82b49a05e" data-name="Layer 1" xmlns="http://www.w3.org/2000/svg" viewBox="0 0 595.01 301.32"><title>gameState</title><path d="M572.16,117.39V184q0,3.24-.31,6.41c-.06.66-.13,1.32-.22,2a66.16,66.16,0,0,1-4.15,16.26q-1.08,2.74-2.39,5.37c-.73,1.47-1.52,2.9-2.35,4.3l-.12.2a68.52,68.52,0,0,1-10.93,13.84,67.64,67.64,0,0,1-44.92,19.23c-.74,0-1.48,0-2.23,0H98.76A67.82,67.82,0,0,1,31.14,184V117.39A67.81,67.81,0,0,1,98.76,49.78H504.54a67.38,67.38,0,0,1,16.67,2.09,68.34,68.34,0,0,1,8.06,2.62,67.14,67.14,0,0,1,16,9l.51.4A67.55,67.55,0,0,1,572.16,117.39Z" fill="#fff"/><path d="M98.63,120.91l14.46-2-6.94,32.62a14.12,14.12,0,0,0,8.65-4.1,25.9,25.9,0,0,0,6.2-9.18,28.26,28.26,0,0,0,2.24-10.74,14.68,14.68,0,0,0-3-9.57q-3-3.72-9.09-3.72-11.91,0-18.6,6.26T85.84,138a12.73,12.73,0,0,0,.68,5,8.67,8.67,0,0,1,.68,1.61q-5.26,0-7.86-2.2c-1.73-1.46-2.59-3.89-2.59-7.27q0-6.25,5.13-12.16A40.6,40.6,0,0,1,111,109.77a28.21,28.21,0,0,1,12.89,2.64,18,18,0,0,1,7.67,7,19,19,0,0,1,2.49,9.62,24.7,24.7,0,0,1-3.47,12.41,27.24,27.24,0,0,1-9.92,9.91,28.33,28.33,0,0,1-14.84,3.86h-.49l-6,27.83H85.35Z"/><path d="M134.23,180.68q-2.88-2.93-2.88-8.79a34,34,0,0,1,.78-6.35l10.45-48.93,14.46-2L145.81,167.4a12.07,12.07,0,0,0-.39,3.12,3.59,3.59,0,0,0,.92,2.79,4.61,4.61,0,0,0,3.08.83,7.4,7.4,0,0,0,5.27-2.4,13.66,13.66,0,0,0,3.52-6.2h4.1q-3.62,10.54-9.28,14.31a20.19,20.19,0,0,1-11.23,3.76A10.16,10.16,0,0,1,134.23,180.68Z"/><path d="M160.65,179.8q-3.71-3.81-3.71-11.91a44.65,44.65,0,0,1,2.88-15.19,35,35,0,0,1,8.6-13.48A18.93,18.93,0,0,1,182,133.7q4,0,6,1.37a4.22,4.22,0,0,1,1.95,3.61v.69l1.08-5.18h14.06l-7,33.21a12.07,12.07,0,0,0-.39,3.12q0,4.2,4,4.2a5.87,5.87,0,0,0,4.74-2.54,19.29,19.29,0,0,0,3.18-6.64h4.1q-3.62,10.54-8.94,14.31a18.4,18.4,0,0,1-10.69,3.76,9.35,9.35,0,0,1-6.6-2.29,10.3,10.3,0,0,1-3-6.69,27.29,27.29,0,0,1-6.3,6.49,13.76,13.76,0,0,1-8.25,2.49A12.44,12.44,0,0,1,160.65,179.8Zm20.46-8a12.05,12.05,0,0,0,3.28-6.3l4.68-22.07a3.94,3.94,0,0,0-1-2.49,3.63,3.63,0,0,0-3-1.22q-3.91,0-7,4.54a36,36,0,0,0-4.89,10.94,43.25,43.25,0,0,0-1.75,11.28c0,3.25.47,5.34,1.41,6.25a4.82,4.82,0,0,0,3.47,1.37A7,7,0,0,0,181.11,171.84Z"/><path d="M217,205a8.38,8.38,0,0,1-3.13-7,10.65,10.65,0,0,1,4.49-8.94,39.05,39.05,0,0,1,11.43-5.61l1.17-5.28a14.95,14.95,0,0,1-11.72,5.47,10.16,10.16,0,0,1-7.57-2.93q-2.88-2.93-2.88-8.79a34,34,0,0,1,.78-6.35l6.65-31.35h14.06l-7,33.21a9.77,9.77,0,0,0-.29,2.44c0,2.87,1,4.3,2.93,4.3a5.9,5.9,0,0,0,4.49-2.2,16.16,16.16,0,0,0,3.12-5.81l6.84-31.94h14.07l-9.67,45.32a17.33,17.33,0,0,0,7.52-4.69,25.19,25.19,0,0,0,4.78-9.28h4.1q-2.62,8.7-7.13,12.75a24,24,0,0,1-10.15,5.52l-1.47,7q-2,9.47-6.74,13a17.71,17.71,0,0,1-10.84,3.56A12.29,12.29,0,0,1,217,205Zm8.79-7.42a17.93,17.93,0,0,0,2.44-6.45l.59-2.83q-9.59,3.51-9.58,8.3a3.29,3.29,0,0,0,.88,2.25,3.12,3.12,0,0,0,2.44,1C223.68,199.82,224.76,199.07,225.8,197.58Z"/><path d="M259.79,179.85q-4-3.76-4-11.77a48.37,48.37,0,0,1,2.64-14.85,34.5,34.5,0,0,1,8.59-14,20.62,20.62,0,0,1,15.14-5.91q10.75,0,10.75,9.38a17.47,17.47,0,0,1-3.13,10.06,23,23,0,0,1-8.3,7.37,26.74,26.74,0,0,1-11,3.18c-.13,1.95-.19,3.25-.19,3.9q0,4.78,1.66,6.5t5.37,1.71a16.17,16.17,0,0,0,9-2.45,43.58,43.58,0,0,0,8.26-7.42h3.32Q287,183.62,271,183.61,263.79,183.61,259.79,179.85Zm18.31-23.78a17.91,17.91,0,0,0,5.27-6,15.45,15.45,0,0,0,2-7.62q0-4-2.45-4-3.51,0-6.88,6.15a46.85,46.85,0,0,0-4.84,14A12.9,12.9,0,0,0,278.1,156.07Z"/><path d="M301.2,134.19h14.06L314,140.24a39.55,39.55,0,0,1,6-4.49,11.38,11.38,0,0,1,5.81-1.56,6.11,6.11,0,0,1,4.93,2.15,7.75,7.75,0,0,1,1.81,5.17,7.44,7.44,0,0,1-1.85,5,6.5,6.5,0,0,1-5.18,2.15,3.36,3.36,0,0,1-2.88-1,7.76,7.76,0,0,1-1.13-3,9,9,0,0,0-.58-1.86,1.1,1.1,0,0,0-1.08-.58,6.77,6.77,0,0,0-3.46.83,23.26,23.26,0,0,0-3.67,2.88L304.91,183H290.84Z"/><path d="M379,183.71c-1.4-.33-3.11-.78-5.13-1.37q-3.62-1.07-5.95-1.56a23.65,23.65,0,0,0-4.89-.49,22.46,22.46,0,0,0-10.74,2.83h-.39a18.89,18.89,0,0,1-.59-4.59,17,17,0,0,1,2.1-8.06,35.39,35.39,0,0,1,5.13-7.27q3-3.33,8.3-8.5,5.57-5.37,9-9.23a39.5,39.5,0,0,0,5.76-8.5,21.29,21.29,0,0,0,2.34-9.72,18.1,18.1,0,0,0-1.8-8.79,6,6,0,0,0-5.52-3.22,7.28,7.28,0,0,0-5.57,2.3,7.92,7.92,0,0,0-2.15,5.61,12.79,12.79,0,0,0,1.32,5.91,8.67,8.67,0,0,0,3.37,3.76v.39a13.07,13.07,0,0,1-3.61,2.44,9.24,9.24,0,0,1-3.81.88,6,6,0,0,1-5-2.73,12.28,12.28,0,0,1-2-7.42,14.64,14.64,0,0,1,2.39-7.92,17.76,17.76,0,0,1,7.08-6.25,23.68,23.68,0,0,1,11-2.44q8.49,0,13.72,4.74t5.23,13a18.74,18.74,0,0,1-2.69,9.77,34.68,34.68,0,0,1-6.59,8q-3.92,3.52-10.45,8.5t-10.26,8.4a27.92,27.92,0,0,0-5.86,7.42,22.76,22.76,0,0,1,6.06-.78,32.24,32.24,0,0,1,4.88.39c1.69.26,3.29.56,4.78.88.26.07,1.13.25,2.59.54a20.71,20.71,0,0,0,4,.44,10.87,10.87,0,0,0,4.88-1.12,16.53,16.53,0,0,0,4.69-3.86l.29.19a18.9,18.9,0,0,1,1.27,6.06,10.69,10.69,0,0,1-1.8,6.1,12.43,12.43,0,0,1-4.84,4.2,14.22,14.22,0,0,1-6.44,1.52A18.21,18.21,0,0,1,379,183.71Z"/><path d="M572.16,117.39V184q0,3.24-.31,6.41c-.06.66-.13,1.32-.22,2l-6.54,21.63c-.73,1.47-1.52,2.9-2.35,4.3l-.12.2a68.52,68.52,0,0,1-10.93,13.84,67.64,67.64,0,0,1-44.92,19.23c-36-20.37-59.93-56.19-66.27-86.48-.55-2.63-.9-4.92-1.13-6.71a261.83,261.83,0,0,1,7.84-108.65h57.33a67.38,67.38,0,0,1,16.67,2.09A173.42,173.42,0,0,1,531.7,66.61c4.59-1.1,9.3-2,14.1-2.68A67.55,67.55,0,0,1,572.16,117.39Z"/><path d="M565.09,214.05a86.63,86.63,0,0,0-13.59-15.73,2.5,2.5,0,0,1-.43-1.77,1.82,1.82,0,0,1,1-1.37,40.19,40.19,0,0,1,15.41-3,36,36,0,0,1,4.1.25Z" fill="#808285"/><path d="M484.45,123.63a76.84,76.84,0,0,1,58.48,62,42.66,42.66,0,0,1-58.48-62Z" fill="#efe584"/><ellipse cx="513.1" cy="167.09" rx="12.1" ry="17.76"/></svg>