<svg id="39ce57fc-dbde-4bf9-8feb-b7e78ff141a8" data-name="Layer 1" xmlns="http://www.w3.org/2000/svg" xmlns:xlink="http://www.w3.org/1999/xlink" viewBox="0 0 595.01 301.32"><defs><radialGradient id="2f9113c4-f99e-441c-9271-918c8007bc13" cx="118.14" cy="128.23" r="7.3" gradientUnits="userSpaceOnUse"><stop offset="0.82" stop-color="#ef4136"/><stop offset="1" stop-color="#fff"/></radialGradient></defs><title>game_state-</title><path d="M567.59,120v66.64a66.26,66.26,0,0,1-.54,8.38,67,67,0,0,1-12.29,31.12c-.35.48-.68.95-1,1.41A68.35,68.35,0,0,1,538,242.5a67.12,67.12,0,0,1-38,11.77H94.18a67.82,67.82,0,0,1-67.61-67.62V120A67.82,67.82,0,0,1,94.18,52.39H500A67.83,67.83,0,0,1,567.59,120Z" opacity="0.31"/><path d="M119.13,120.42,100.65,107l4.88,34.27c2,1.14,6,3,9.43,1.58C120.19,140.7,123.23,131.28,119.13,120.42Z" fill="#ef4136"/><path d="M124.66,111.62q-8-8.12-16.07-16.22l-.74,34.6c1.77,1.45,5.41,3.94,9,3.09C122.41,131.8,126.94,123,124.66,111.62Z" fill="#ef4136"/><path d="M133.41,102.41,121.2,83.11,113,116.75c1.41,1.8,4.44,5,8.16,5C126.87,121.64,133.19,114,133.41,102.41Z" fill="#ef4136"/><path d="M195.44,182c6.63-29.8-17.87-74.91-54.66-74.71-35.2.2-60.22,41.76-54.48,71.79a51.9,51.9,0,0,0,20.9,32c12.9,9,26.39,8.93,35,8.91s21.31,0,33.41-8.39A50.2,50.2,0,0,0,195.44,182Z" fill="#fff"/><path d="M128.57,183.79l11.21,1.83,11.44-1.82c.77.12,1.16.28,1.17.46s0,.15-.17.23l-11.32,7.17a2.38,2.38,0,0,1-2,0l-11.34-7.18c-.12-.08-.18-.16-.18-.23S127.8,183.92,128.57,183.79Z" fill="#d99737"/><path d="M151.22,185.63l-22.66,0a1.17,1.17,0,0,1-1-1.78l11.31-18.43a1.18,1.18,0,0,1,2,0l11.34,18.45A1.17,1.17,0,0,1,151.22,185.63Z" fill="#fbb040"/><path d="M155.41,109.58a8.45,8.45,0,0,0-1.34-.13c-6.06-.14-11.4,5.68-13.91,14.14-2-8.91-7.21-15.27-13.42-15.41h-.15q7.57-14.76,15.14-29.52Z" fill="#ef4136"/><path d="M167.33,152.7c0,6.81-2.9,12.34-6.48,12.34s-6.5-5.53-6.5-12.34a21.83,21.83,0,0,1,.44-4.46l9.62-5.85C166.17,144.6,167.33,148.38,167.33,152.7Z"/><path d="M124.63,152.7c0,6.81-2.91,12.34-6.5,12.34s-6.48-5.53-6.48-12.34c0-4.32,1.16-8.1,2.92-10.31l9.62,5.85A21.83,21.83,0,0,1,124.63,152.7Z"/><path d="M113.51,133.93a4.88,4.88,0,0,0-2.67-8.73l1.35-1.61a4.88,4.88,0,0,0,8.73-2.67l1.85,1.18a4.87,4.87,0,0,0,2.66,8.73l-.91,2a4.88,4.88,0,0,0-8.73,2.66Z" fill="url(#2f9113c4-f99e-441c-9271-918c8007bc13)"/><path d="M517.47,171.79c-4.09,22.82-28.46,49.09-61,49.08-33.24,0-56.46-27.49-61-49.08-.26-1.25-.43-2.35-.54-3.2a125.13,125.13,0,0,1,12-72.93,81.41,81.41,0,0,1,32.12,29.1,75,75,0,0,1,17.44-2,73.85,73.85,0,0,1,16.14,1.75,81.35,81.35,0,0,1,31.93-28.81,141.36,141.36,0,0,1,13.55,67.71A41.86,41.86,0,0,1,517.47,171.79Z"/><path d="M463.59,187.63a22,22,0,0,0-7,8.29.7.7,0,0,1-.54.26.72.72,0,0,1-.54-.26,39.77,39.77,0,0,0-3.4-4.58,40.28,40.28,0,0,0-3.6-3.71,1.19,1.19,0,0,1-.2-.85.86.86,0,0,1,.5-.65,19,19,0,0,1,14.48,0A1,1,0,0,1,463.59,187.63Z" fill="#808285"/><path d="M446.7,179.91a21.93,21.93,0,0,1-14.25,6.86c-8.24.48-16.28-4.28-20.66-12.15a19.39,19.39,0,0,1-.09-8.5L432.6,153a20,20,0,0,1,6.26,3.37C448.91,164.36,446.84,179,446.7,179.91Z" fill="#efe584"/><path d="M500.17,175.69c-4.37,7.87-12.41,12.63-20.65,12.16A22,22,0,0,1,465.27,181c-.15-.94-2.22-15.55,7.83-23.57a20.36,20.36,0,0,1,7.51-3.75l19.31,12.15A19.23,19.23,0,0,1,500.17,175.69Z" fill="#efe584"/><ellipse cx="431.67" cy="172.72" rx="5.77" ry="8.48"/><ellipse cx="478.98" cy="174.66" rx="5.77" ry="8.48"/><polygon points="367.67 163.66 352.95 172.18 302.03 201.66 301.62 201.66 301.62 182.66 226.48 182.66 226.48 143.8 301.62 143.8 301.62 125.66 302.03 125.66 367.67 163.66" fill="#f9f1f1"/><polygon points="367.67 163.66 352.95 172.18 301.62 142.55 301.62 125.66 302.03 125.66 367.67 163.66" opacity="0.04"/></svg>