<svg id="dd65dd80-d1aa-46c3-81ea-30089c296347" data-name="Layer 1" xmlns="http://www.w3.org/2000/svg" viewBox="0 0 595.01 301.32"><title>gameState</title><path d="M572,117.39V184q0,3.24-.31,6.41a66.48,66.48,0,0,1-4.37,18.23,67.15,67.15,0,0,1-4.74,9.67l-.12.2a68.52,68.52,0,0,1-10.93,13.84A67.51,67.51,0,0,1,514,251a66.73,66.73,0,0,1-9.65.7H98.6A67.82,67.82,0,0,1,31,184V117.39A67.81,67.81,0,0,1,98.6,49.78H504.38A67.8,67.8,0,0,1,572,117.39Z" fill="#fff"/><path d="M572,117.39V184q0,3.24-.31,6.41l-4.37,18.23a67.15,67.15,0,0,1-4.74,9.67l-.12.2a68.52,68.52,0,0,1-10.93,13.84A67.51,67.51,0,0,1,514,251c-37.18-20-61.9-56.63-68.34-87.45-.55-2.62-.9-4.89-1.14-6.68a261.07,261.07,0,0,1,7.47-107h52.36a67,67,0,0,1,24.73,4.71c2.9,3.86,5.37,7.5,7.47,10.82q4.21-1,8.55-1.78A67.59,67.59,0,0,1,572,117.39Z"/><path d="M571.69,190.45a40.11,40.11,0,0,0-14.76,3,1.81,1.81,0,0,0-1,1.37,2.42,2.42,0,0,0,.42,1.76,85,85,0,0,1,7.51,7.74c1.27,1.48,2.44,2.95,3.5,4.37Z" fill="#808285"/><path d="M552.53,180.45c-2.78,2.93-13.38,13.38-29.75,14.32-17.21,1-34-8.93-43.13-25.37a40.31,40.31,0,0,1-.19-17.73l43.64-27.46a42.05,42.05,0,0,1,13.07,7C557.15,148,552.82,178.51,552.53,180.45Z" fill="#efe584"/><ellipse cx="521.15" cy="165.45" rx="12.06" ry="17.7"/><path d="M98.47,120.91l14.46-2L106,151.57a14.12,14.12,0,0,0,8.65-4.1,25.9,25.9,0,0,0,6.2-9.18,28.07,28.07,0,0,0,2.24-10.74,14.68,14.68,0,0,0-3-9.57q-3-3.72-9.09-3.72-11.91,0-18.6,6.26T85.68,138a12.73,12.73,0,0,0,.68,5,7.93,7.93,0,0,1,.68,1.61q-5.26,0-7.86-2.2c-1.72-1.46-2.59-3.89-2.59-7.27q0-6.25,5.13-12.16a40.6,40.6,0,0,1,29.16-13.24,28.21,28.21,0,0,1,12.89,2.64,17.92,17.92,0,0,1,7.67,7,19,19,0,0,1,2.49,9.62,24.7,24.7,0,0,1-3.47,12.41,27.29,27.29,0,0,1-9.91,9.91,28.39,28.39,0,0,1-14.85,3.86h-.49l-6,27.83H85.19Z"/><path d="M134.07,180.68q-2.88-2.93-2.88-8.79a34,34,0,0,1,.78-6.35l10.45-48.93,14.46-2L145.65,167.4a12.07,12.07,0,0,0-.39,3.12,3.59,3.59,0,0,0,.92,2.79,4.61,4.61,0,0,0,3.08.83,7.4,7.4,0,0,0,5.27-2.4,13.66,13.66,0,0,0,3.52-6.2h4.1q-3.61,10.54-9.28,14.31a20.19,20.19,0,0,1-11.23,3.76A10.16,10.16,0,0,1,134.07,180.68Z"/><path d="M160.49,179.8q-3.7-3.81-3.71-11.91a44.65,44.65,0,0,1,2.88-15.19,35,35,0,0,1,8.6-13.48,18.93,18.93,0,0,1,13.62-5.52q4,0,6,1.37a4.22,4.22,0,0,1,1.95,3.61v.69l1.08-5.18h14.06l-7,33.21a12.07,12.07,0,0,0-.39,3.12q0,4.2,4,4.2a5.87,5.87,0,0,0,4.74-2.54,19.11,19.11,0,0,0,3.18-6.64h4.1q-3.61,10.54-8.94,14.31a18.4,18.4,0,0,1-10.69,3.76,9.35,9.35,0,0,1-6.6-2.29,10.3,10.3,0,0,1-3-6.69,27.1,27.1,0,0,1-6.3,6.49,13.76,13.76,0,0,1-8.25,2.49A12.44,12.44,0,0,1,160.49,179.8Zm20.46-8a12.05,12.05,0,0,0,3.28-6.3l4.69-22.07a4,4,0,0,0-1-2.49,3.63,3.63,0,0,0-3-1.22c-2.6,0-4.95,1.51-7,4.54A36,36,0,0,0,173,155.24a43.25,43.25,0,0,0-1.75,11.28c0,3.25.47,5.34,1.41,6.25a4.82,4.82,0,0,0,3.47,1.37A7,7,0,0,0,181,171.84Z"/><path d="M216.85,205a8.38,8.38,0,0,1-3.13-7,10.63,10.63,0,0,1,4.5-8.94,38.86,38.86,0,0,1,11.42-5.61l1.17-5.28a14.95,14.95,0,0,1-11.72,5.47,10.16,10.16,0,0,1-7.57-2.93q-2.88-2.93-2.88-8.79a34,34,0,0,1,.78-6.35l6.65-31.35h14.06l-7,33.21a9.77,9.77,0,0,0-.29,2.44c0,2.87,1,4.3,2.93,4.3a5.89,5.89,0,0,0,4.49-2.2,16.16,16.16,0,0,0,3.12-5.81l6.84-31.94h14.07l-9.67,45.32a17.33,17.33,0,0,0,7.52-4.69,25,25,0,0,0,4.78-9.28H261q-2.64,8.7-7.13,12.75a24.07,24.07,0,0,1-10.16,5.52l-1.47,7q-2,9.47-6.74,13a17.71,17.71,0,0,1-10.84,3.56A12.29,12.29,0,0,1,216.85,205Zm8.79-7.42a17.93,17.93,0,0,0,2.44-6.45l.59-2.83q-9.58,3.51-9.58,8.3a3.29,3.29,0,0,0,.88,2.25,3.13,3.13,0,0,0,2.45,1C223.52,199.82,224.6,199.07,225.64,197.58Z"/><path d="M259.63,179.85q-4-3.76-4-11.77a48.37,48.37,0,0,1,2.64-14.85,34.5,34.5,0,0,1,8.59-14A20.62,20.62,0,0,1,282,133.31q10.75,0,10.75,9.38a17.47,17.47,0,0,1-3.13,10.06,23,23,0,0,1-8.3,7.37,26.74,26.74,0,0,1-11,3.18c-.13,1.95-.19,3.25-.19,3.9q0,4.78,1.66,6.5t5.37,1.71a16.23,16.23,0,0,0,9-2.45,43.87,43.87,0,0,0,8.25-7.42h3.32q-10.85,18.08-26.86,18.07Q263.63,183.61,259.63,179.85Zm18.31-23.78a17.91,17.91,0,0,0,5.27-6,15.45,15.45,0,0,0,2-7.62c0-2.67-.82-4-2.44-4q-3.52,0-6.89,6.15a46.56,46.56,0,0,0-4.83,14A12.9,12.9,0,0,0,277.94,156.07Z"/><path d="M301,134.19H315.1l-1.27,6.05a39.55,39.55,0,0,1,6-4.49,11.38,11.38,0,0,1,5.81-1.56,6.11,6.11,0,0,1,4.93,2.15,7.75,7.75,0,0,1,1.81,5.17,7.44,7.44,0,0,1-1.85,5,6.5,6.5,0,0,1-5.18,2.15,3.36,3.36,0,0,1-2.88-1,7.76,7.76,0,0,1-1.13-3,9,9,0,0,0-.58-1.86,1.1,1.1,0,0,0-1.08-.58,6.77,6.77,0,0,0-3.46.83,23.26,23.26,0,0,0-3.67,2.88L304.75,183H290.69Z"/><path d="M378.83,183.71c-1.4-.33-3.11-.78-5.12-1.37q-3.61-1.07-6-1.56a23.65,23.65,0,0,0-4.89-.49,22.46,22.46,0,0,0-10.74,2.83h-.39a18.89,18.89,0,0,1-.59-4.59,17,17,0,0,1,2.1-8.06,35.39,35.39,0,0,1,5.13-7.27q3-3.33,8.3-8.5,5.56-5.37,9-9.23a39.5,39.5,0,0,0,5.76-8.5,21.3,21.3,0,0,0,2.35-9.72,18.1,18.1,0,0,0-1.81-8.79,6,6,0,0,0-5.52-3.22,7.28,7.28,0,0,0-5.57,2.3,7.92,7.92,0,0,0-2.15,5.61,12.79,12.79,0,0,0,1.32,5.91,8.67,8.67,0,0,0,3.37,3.76v.39a13.07,13.07,0,0,1-3.61,2.44,9.21,9.21,0,0,1-3.81.88,6,6,0,0,1-5-2.73,12.28,12.28,0,0,1-2-7.42,14.64,14.64,0,0,1,2.39-7.92,17.83,17.83,0,0,1,7.08-6.25,23.68,23.68,0,0,1,11-2.44q8.49,0,13.72,4.74t5.23,13a18.74,18.74,0,0,1-2.69,9.77,34.68,34.68,0,0,1-6.59,8q-3.92,3.52-10.45,8.5t-10.26,8.4a27.92,27.92,0,0,0-5.86,7.42,22.76,22.76,0,0,1,6.06-.78,32.14,32.14,0,0,1,4.88.39c1.69.26,3.29.56,4.79.88q.39.1,2.58.54a20.71,20.71,0,0,0,4,.44,10.87,10.87,0,0,0,4.88-1.12,16.53,16.53,0,0,0,4.69-3.86l.29.19a18.9,18.9,0,0,1,1.27,6.06,10.69,10.69,0,0,1-1.8,6.1,12.43,12.43,0,0,1-4.84,4.2,14.22,14.22,0,0,1-6.44,1.52A18.21,18.21,0,0,1,378.83,183.71Z"/></svg>