<svg id="aec5d712-ec10-4686-a704-3db796e65f84" class="login_background" xmlns="http://www.w3.org/2000/svg" viewBox="0 0 459.45 608"><title>login</title><rect x="22.72" y="28" width="414" height="552" rx="11.08" ry="11.08" fill="#ffe6c4"/><circle cx="44.72" cy="47" r="9" fill="gray"/><path d="M50.11,44.31l.35.86a.27.27,0,0,1-.15.34L45.66,47.4l1.89,4.65a.25.25,0,0,1-.14.33l-.86.35a.25.25,0,0,1-.33-.14l-1.89-4.65-4.66,1.89a.25.25,0,0,1-.33-.14L39,48.83a.27.27,0,0,1,.14-.34l4.66-1.89L41.89,42a.25.25,0,0,1,.15-.33l.85-.35a.25.25,0,0,1,.34.14l1.89,4.65,4.65-1.89A.27.27,0,0,1,50.11,44.31Z" fill="#333"/><circle cx="415.72" cy="47" r="9" fill="gray"/><path d="M421.45,45.14l.21.9a.25.25,0,0,1-.19.31l-4.88,1.18,1.18,4.88a.25.25,0,0,1-.19.31l-.9.22a.27.27,0,0,1-.31-.19l-1.18-4.88-4.88,1.18a.26.26,0,0,1-.31-.19l-.22-.9a.26.26,0,0,1,.19-.31l4.88-1.18-1.18-4.88a.26.26,0,0,1,.19-.31l.9-.22a.26.26,0,0,1,.31.19l1.18,4.88L421.13,45A.27.27,0,0,1,421.45,45.14Z" fill="#333"/><circle cx="47.72" cy="556" r="9" fill="gray"/><path d="M53.56,557.46l-.29.88a.26.26,0,0,1-.33.16l-4.76-1.59-1.59,4.76a.27.27,0,0,1-.33.17l-.88-.3a.26.26,0,0,1-.16-.32l1.59-4.77-4.76-1.59a.24.24,0,0,1-.16-.32l.29-.88a.25.25,0,0,1,.32-.16l4.77,1.59,1.59-4.76a.26.26,0,0,1,.33-.17l.87.3a.26.26,0,0,1,.17.32l-1.6,4.77,4.77,1.59A.25.25,0,0,1,53.56,557.46Z" fill="#333"/><circle cx="412.72" cy="556" r="9" fill="gray"/><path d="M418.1,558.7l-.48.79a.26.26,0,0,1-.35.09L413,557l-2.59,4.3a.27.27,0,0,1-.36.09l-.79-.48a.26.26,0,0,1-.09-.35l2.59-4.3-4.3-2.6a.25.25,0,0,1-.08-.35l.47-.79a.27.27,0,0,1,.36-.09l4.3,2.59,2.59-4.3a.26.26,0,0,1,.35-.09l.8.48a.25.25,0,0,1,.08.35l-2.59,4.3,4.3,2.6A.26.26,0,0,1,418.1,558.7Z" fill="#333"/></svg>