<svg id="f84337fd-8ade-410e-a655-3f079c801403" data-name="Layer 1" xmlns="http://www.w3.org/2000/svg" viewBox="0 0 1920 1080"><title>panneau_profile</title><rect x="572.09" y="287.99" width="97.55" height="797.01" fill="#7a4f29"/><circle cx="620.87" cy="287.99" r="48.77" fill="#9c713e"/><circle cx="620.87" cy="287.99" r="39.31" fill="#b8864a"/><circle cx="620.87" cy="287.99" r="27.8" fill="#c79050"/><circle cx="620.87" cy="287.99" r="13.45" fill="#d99e57"/><rect x="1246.09" y="296.99" width="97.55" height="788.01" fill="#7a4f29"/><circle cx="1294.87" cy="296.99" r="48.77" fill="#9c713e"/><circle cx="1294.87" cy="296.99" r="39.31" fill="#b8864a"/><circle cx="1294.87" cy="296.99" r="27.8" fill="#c79050"/><circle cx="1294.87" cy="296.99" r="13.45" fill="#d99e57"/><rect x="653" y="394" width="610" height="593" rx="9.32" ry="9.32" fill="#ffe6c4"/><rect x="540" y="367" width="840" height="85" rx="9.63" ry="9.63" transform="translate(-14.55 35.95) rotate(-2.13)" fill="#b8864a"/><circle cx="621.33" cy="424.59" r="9" fill="gray"/><path d="M627.31,425.27l-.18.91a.25.25,0,0,1-.3.2l-4.93-.94-.95,4.93a.25.25,0,0,1-.3.2l-.9-.17a.26.26,0,0,1-.21-.3l.94-4.93-4.93-.95a.25.25,0,0,1-.2-.3l.17-.91a.25.25,0,0,1,.3-.2l4.94.94.94-4.93a.27.27,0,0,1,.3-.21l.91.18a.25.25,0,0,1,.2.3l-.94,4.93,4.93,1A.26.26,0,0,1,627.31,425.27Z" fill="#333"/><circle cx="1294.19" cy="398.99" r="9" fill="gray"/><path d="M1300.05,397.6l.14.91a.26.26,0,0,1-.22.3l-5,.78.78,5a.25.25,0,0,1-.21.29l-.92.14a.24.24,0,0,1-.29-.21l-.78-5-5,.78a.27.27,0,0,1-.3-.22l-.14-.91a.27.27,0,0,1,.22-.3l5-.77-.78-5a.25.25,0,0,1,.21-.29l.92-.14a.24.24,0,0,1,.29.21l.78,5,5-.77A.26.26,0,0,1,1300.05,397.6Z" fill="#333"/><path d="M896.81,396.11a23.05,23.05,0,0,1,5.57-.86c3.1-.11,5.72.54,7.54,2.23a9.4,9.4,0,0,1,2.75,6.85,10.65,10.65,0,0,1-1.79,7,9.86,9.86,0,0,1-7.81,4,16.14,16.14,0,0,1-1.69,0l.51,13.79-3.85.14Zm4.44,16a6.27,6.27,0,0,0,1.51.09c3.8-.14,6.25-2.73,6.07-7.48-.12-3.45-1.69-6.49-5.94-6.33a7.67,7.67,0,0,0-2.13.33Z"/><path d="M917.84,395.33a21.91,21.91,0,0,1,5.52-.86c3.35-.12,5.88.49,7.69,2.12a9.09,9.09,0,0,1,2.59,6.51c.16,4.3-1.73,7.17-5.07,8.84v.1c2.53.66,3.91,3,4.83,7.38a48.24,48.24,0,0,0,2.21,8.47l-3.89.15c-.54-1-1.31-4.16-2.11-8.28-.92-4.57-2.44-6.26-5.73-6.14l-1.5.05.54,14.7-3.85.14Zm4.43,15.4,1.6-.06c3.69-.14,6-2.93,5.89-7-.14-3.89-1.83-6.23-6-6.13a8.17,8.17,0,0,0-2,.27Z"/><path d="M957.66,410c.47,12.64-3.69,17.65-9.09,17.85-5.6.21-9.57-5.6-10-16.94-.41-11.14,3.36-17.34,9.26-17.56C953.58,393.1,957.26,399.22,957.66,410Zm-15.08.81c.26,7,1.87,13.79,6.11,13.64s5.23-7.55,5-14.15c-.23-6.3-1.66-13.7-6.06-13.54C943.42,396.88,942.33,403.93,942.58,410.77Z"/><path d="M962.74,393.16l12.84-.48.13,3.35-9,.34.44,11.79,8.4-.31.12,3.24-8.4.32.57,15.29-3.85.14Z"/><path d="M984.93,392.33,986.18,426l-3.85.15-1.25-33.68Z"/><path d="M992.12,392.07l3.85-.15,1.13,30.44,9.49-.36.12,3.25-13.34.5Z"/><path d="M1023.36,408.62l-8.45.31.47,12.65,9.6-.36.12,3.35-13.44.5-1.25-33.68,12.84-.48.12,3.35-9,.33.41,11.1,8.45-.32Z"/></svg>