<svg id="f2ebcc3a-e0d1-4514-9724-7e52bd914652" data-name="Layer 1" xmlns="http://www.w3.org/2000/svg" viewBox="0 0 1920 1080"><title>panneau_panneau</title><rect x="442.09" y="240.99" width="97.55" height="839.01" fill="#7a4f29"/><circle cx="490.87" cy="240.99" r="48.77" fill="#9c713e"/><circle cx="490.87" cy="240.99" r="39.31" fill="#b8864a"/><circle cx="490.87" cy="240.99" r="27.8" fill="#c79050"/><circle cx="490.87" cy="240.99" r="13.45" fill="#d99e57"/><rect x="1359.09" y="249.99" width="97.55" height="830.01" fill="#7a4f29"/><circle cx="1407.87" cy="249.99" r="48.77" fill="#9c713e"/><circle cx="1407.87" cy="249.99" r="39.31" fill="#b8864a"/><circle cx="1407.87" cy="249.99" r="27.8" fill="#c79050"/><circle cx="1407.87" cy="249.99" r="13.45" fill="#d99e57"/><rect x="497" y="352" width="890" height="631" rx="11.61" ry="11.61" fill="#ffe6c4"/><rect x="402" y="326" width="1080" height="85" rx="10.92" ry="10.92" transform="matrix(1, -0.03, 0.03, 1, -9.9, 26.38)" fill="#b8864a"/><circle cx="491.27" cy="384.56" r="9" fill="gray"/><path d="M497.25,385.29l-.19.9a.26.26,0,0,1-.3.21l-4.92-1-1,4.92a.26.26,0,0,1-.31.2l-.9-.18a.27.27,0,0,1-.21-.3l1-4.93-4.92-1a.25.25,0,0,1-.2-.3l.18-.91a.26.26,0,0,1,.3-.2l4.93,1,1-4.92a.27.27,0,0,1,.3-.21l.91.19a.25.25,0,0,1,.2.3l-1,4.92,4.92,1A.28.28,0,0,1,497.25,385.29Z" fill="#333"/><circle cx="1411.74" cy="355.32" r="9" fill="gray"/><path d="M1417.61,354l.13.92a.25.25,0,0,1-.21.29l-5,.73.73,5a.26.26,0,0,1-.22.29l-.91.14a.27.27,0,0,1-.3-.22l-.73-5-5,.73a.26.26,0,0,1-.29-.22l-.13-.91a.25.25,0,0,1,.21-.29l5-.73-.73-5a.27.27,0,0,1,.22-.3l.91-.13a.26.26,0,0,1,.3.22l.73,5,5-.74A.26.26,0,0,1,1417.61,354Z" fill="#333"/><path d="M877.29,377.12l-2,10.16-3.7.1,6.76-33.91,4.24-.11,8.44,33.48-3.8.1-2.53-10Zm6.87-3.3-2-8.5c-.57-2.38-1.1-5.17-1.57-7.66h-.2c-.32,2.56-.74,5.47-1.13,7.74L877.76,374Z"/><path d="M895.44,353.5a23.64,23.64,0,0,1,5.63-.81c3-.08,5.67.49,7.52,2.14a7.65,7.65,0,0,1,2.36,5.69,7.8,7.8,0,0,1-5,7.64v.1c3.93.94,6.36,4,6.49,8.43a9.68,9.68,0,0,1-2.22,6.76c-1.84,2.2-5,3.19-8.81,3.3a27.33,27.33,0,0,1-5.06-.21Zm4.24,13.69,1.75-.05a5.79,5.79,0,0,0,5.68-6.11c-.09-3.1-1.6-5.46-5.7-5.35a7.18,7.18,0,0,0-2,.31Zm.45,16.34a9,9,0,0,0,2,.15c4-.11,6.53-2.53,6.41-6.88-.13-4.65-3.44-6.76-7-6.71l-1.7.05Z"/><path d="M935.48,368.49c.35,12.65-3.86,17.62-9.26,17.77-5.6.15-9.52-5.69-9.83-17-.31-11.14,3.52-17.3,9.41-17.47S935.18,357.75,935.48,368.49Zm-15.09.67c.19,6.95,1.73,13.81,6,13.69s5.3-7.5,5.11-14.1c-.17-6.29-1.53-13.71-5.93-13.59C921.35,355.28,920.2,362.31,920.39,369.16Z"/><path d="M944.51,351.63l.63,22.59c.17,6,2.22,8,4.82,8,2.85-.07,4.59-2.32,4.42-8.22l-.62-22.6,3.85-.1.61,22c.24,8.75-3.26,12.2-8.26,12.34s-8.44-3.07-8.67-11.42l-.63-22.44Z"/><path d="M968.7,354.41l-6.15.17-.1-3.45,16.15-.45.09,3.45-6.15.17.85,30.24-3.85.11Z"/><path d="M996.19,350.19l.63,22.6c.17,6,2.22,8,4.82,8,2.85-.08,4.59-2.32,4.42-8.22l-.63-22.6,3.85-.1.62,22c.24,8.75-3.27,12.2-8.26,12.34s-8.44-3.07-8.68-11.42l-.62-22.44Z"/><path d="M1016.39,378.89a9.92,9.92,0,0,0,4.89,1.22c3.5-.1,5.53-2.46,5.44-5.86-.09-3.1-1.94-4.95-4.64-6.87s-6.49-4.82-6.61-9.17a8.5,8.5,0,0,1,8.65-9.1,8.8,8.8,0,0,1,4.78,1.12l-.86,3.33a7,7,0,0,0-4-1,4.64,4.64,0,0,0-4.71,4.93c.09,3.35,1.88,4.6,5.14,6.81,4.13,2.74,6,5.79,6.12,9.54a9,9,0,0,1-9.18,9.7,11.24,11.24,0,0,1-5.74-1.29Z"/></svg>