<svg id="4790ff83-db5c-4f70-8f52-bc9e304147fc" data-name="Layer 1" xmlns="http://www.w3.org/2000/svg" viewBox="0 0 1920 1080"><title>panneau_leaderboard</title><rect x="442.09" y="240.99" width="97.55" height="839.01" fill="#7a4f29"/><circle cx="490.87" cy="240.99" r="48.77" fill="#9c713e"/><circle cx="490.87" cy="240.99" r="39.31" fill="#b8864a"/><circle cx="490.87" cy="240.99" r="27.8" fill="#c79050"/><circle cx="490.87" cy="240.99" r="13.45" fill="#d99e57"/><rect x="1359.09" y="249.99" width="97.55" height="830.01" fill="#7a4f29"/><circle cx="1407.87" cy="249.99" r="48.77" fill="#9c713e"/><circle cx="1407.87" cy="249.99" r="39.31" fill="#b8864a"/><circle cx="1407.87" cy="249.99" r="27.8" fill="#c79050"/><circle cx="1407.87" cy="249.99" r="13.45" fill="#d99e57"/><rect x="497" y="352" width="890" height="631" rx="11.61" ry="11.61" fill="#ffe6c4"/><rect x="402" y="326" width="1080" height="85" rx="10.92" ry="10.92" transform="matrix(1, -0.03, 0.03, 1, -9.9, 26.38)" fill="#b8864a"/><circle cx="491.27" cy="384.56" r="9" fill="gray"/><path d="M497.25,385.29l-.19.9a.26.26,0,0,1-.3.21l-4.92-1-1,4.92a.26.26,0,0,1-.31.2l-.9-.18a.27.27,0,0,1-.21-.3l1-4.93-4.92-1a.25.25,0,0,1-.2-.3l.18-.91a.26.26,0,0,1,.3-.2l4.93,1,1-4.92a.27.27,0,0,1,.3-.21l.91.19a.25.25,0,0,1,.2.3l-1,4.92,4.92,1A.28.28,0,0,1,497.25,385.29Z" fill="#333"/><circle cx="1411.74" cy="355.32" r="9" fill="gray"/><path d="M1417.61,354l.13.92a.25.25,0,0,1-.21.29l-5,.73.73,5a.26.26,0,0,1-.22.29l-.91.14a.27.27,0,0,1-.3-.22l-.73-5-5,.73a.26.26,0,0,1-.29-.22l-.13-.91a.25.25,0,0,1,.21-.29l5-.73-.73-5a.27.27,0,0,1,.22-.3l.91-.13a.26.26,0,0,1,.3.22l.73,5,5-.74A.26.26,0,0,1,1417.61,354Z" fill="#333"/><path d="M820.59,356.64l3.85-.11.85,30.44,9.49-.27.09,3.25-13.34.38Z"/><path d="M851.67,373.48l-8.45.23.35,12.65,9.6-.27.09,3.35-13.44.38-.94-33.69,12.85-.36.09,3.35-9,.25.31,11.09,8.45-.23Z"/><path d="M862.38,379.08l-2,10.16-3.7.1,6.76-33.9,4.25-.12,8.44,33.48-3.8.11-2.53-10Zm6.86-3.29-2-8.5c-.56-2.38-1.09-5.17-1.56-7.66h-.2c-.33,2.56-.75,5.47-1.14,7.73l-1.51,8.6Z"/><path d="M880.53,355.47a18.17,18.17,0,0,1,5.18-.8c3.55-.1,6.07.73,8,2.33,2.66,2.18,4.73,6.47,4.93,13.52.21,7.7-1.57,12-3.66,14.31-2.13,2.56-5.29,3.8-9.19,3.91a22,22,0,0,1-4.31-.24Zm4.68,29.93a8.66,8.66,0,0,0,1.46.06c4.24-.12,8.26-3.28,7.94-14.73-.24-8.5-3-13.07-8.36-12.92a6.42,6.42,0,0,0-1.8.25Z"/><path d="M916.64,371.67l-8.44.23.35,12.65,9.6-.27.09,3.35-13.45.38-.94-33.69L916.7,354l.09,3.35-9,.25.31,11.09,8.44-.23Z"/><path d="M922.66,354.29a22.09,22.09,0,0,1,5.53-.8c3.35-.1,5.87.53,7.66,2.18a9.12,9.12,0,0,1,2.54,6.54,8.77,8.77,0,0,1-5.16,8.79v.11c2.52.68,3.89,3,4.76,7.42a47.66,47.66,0,0,0,2.14,8.49l-3.9.11c-.53-1-1.27-4.17-2-8.3-.88-4.58-2.38-6.29-5.68-6.19l-1.5,0,.41,14.7-3.85.1Zm4.28,15.44,1.6,0c3.7-.11,6.08-2.87,6-6.92-.11-3.9-1.77-6.26-5.92-6.19a7.94,7.94,0,0,0-2,.25Z"/><path d="M944.2,353.69a23.64,23.64,0,0,1,5.63-.81c3-.08,5.67.5,7.52,2.15a7.65,7.65,0,0,1,2.36,5.68,7.81,7.81,0,0,1-5,7.65v.1c3.93.94,6.36,4,6.49,8.42a9.68,9.68,0,0,1-2.22,6.76c-1.84,2.21-5,3.19-8.81,3.3a27.33,27.33,0,0,1-5.06-.21Zm4.24,13.69,1.74-.05a5.8,5.8,0,0,0,5.69-6.11c-.09-3.1-1.61-5.46-5.7-5.34a6.9,6.9,0,0,0-2,.3Zm.45,16.35a9.79,9.79,0,0,0,2,.14c4-.11,6.54-2.53,6.42-6.88-.13-4.65-3.44-6.76-7-6.71l-1.7.05Z"/><path d="M984.23,368.68c.36,12.65-3.86,17.62-9.25,17.77-5.6.16-9.52-5.69-9.83-17-.31-11.15,3.52-17.31,9.41-17.47S983.94,357.94,984.23,368.68Zm-15.08.67c.19,6.95,1.73,13.81,6,13.69s5.29-7.5,5.11-14.09c-.17-6.3-1.53-13.72-5.93-13.6C970.11,355.47,969,362.51,969.15,369.35Z"/><path d="M993.18,375.44l-2,10.16-3.7.1,6.76-33.9,4.25-.12,8.43,33.48-3.8.1-2.53-10Zm6.86-3.29-2-8.5c-.57-2.39-1.09-5.17-1.56-7.66h-.2c-.33,2.56-.75,5.48-1.14,7.74l-1.51,8.59Z"/><path d="M1011.32,351.82a22.17,22.17,0,0,1,5.54-.8c3.34-.1,5.86.53,7.66,2.19a9,9,0,0,1,2.53,6.53,8.79,8.79,0,0,1-5.16,8.8v.1c2.52.68,3.88,3,4.76,7.42a49,49,0,0,0,2.13,8.49l-3.9.11a44.88,44.88,0,0,1-2-8.3c-.87-4.58-2.37-6.29-5.67-6.19l-1.5,0,.41,14.69-3.85.11Zm4.29,15.44,1.6-.05c3.7-.1,6.07-2.87,6-6.91s-1.78-6.26-5.93-6.19a7.8,7.8,0,0,0-2,.25Z"/><path d="M1032.87,351.22a18.13,18.13,0,0,1,5.18-.79c3.55-.1,6.07.73,8,2.33,2.66,2.17,4.73,6.47,4.92,13.52.22,7.69-1.56,11.94-3.65,14.3-2.13,2.56-5.3,3.8-9.19,3.91a21.3,21.3,0,0,1-4.31-.23Zm4.68,29.93a7.59,7.59,0,0,0,1.45.06c4.25-.11,8.27-3.28,8-14.72-.24-8.5-3-13.08-8.37-12.93a7.16,7.16,0,0,0-1.79.25Z"/><path d="M1056.26,379.33a9.91,9.91,0,0,0,4.88,1.22c3.5-.1,5.54-2.46,5.44-5.86-.08-3.1-1.94-4.94-4.64-6.87-2.7-1.78-6.49-4.82-6.61-9.17a8.5,8.5,0,0,1,8.65-9.1,8.84,8.84,0,0,1,4.79,1.12l-.86,3.33a7,7,0,0,0-4-1,4.65,4.65,0,0,0-4.72,4.93c.1,3.35,1.88,4.6,5.14,6.81,4.13,2.74,6,5.79,6.12,9.54a9,9,0,0,1-9.18,9.71,11.45,11.45,0,0,1-5.74-1.29Z"/></svg>